<svg xmlns="http://www.w3.org/2000/svg" viewBox="0 0 1200 860" font-family="sans-serif">
<rect x="0" y="0" width="1200" height="860" fill="#ffffff"/>
<text x="40" y="46" font-family="-apple-system,Segoe UI,Roboto,Helvetica,Arial,sans-serif" font-size="22" font-weight="500" fill="#1a1a1a" text-anchor="start">SHARAK — sensor node schematic</text>
<text x="40" y="70" font-family="-apple-system,Segoe UI,Roboto,Helvetica,Arial,sans-serif" font-size="13" font-weight="400" fill="#555" text-anchor="start">IIoT vibration-telemetry node — sensor to gateway</text>
<rect x="300" y="150" width="190" height="210" rx="3" fill="#fafafa" stroke="#1a1a1a" stroke-width="2.4"/>
<text x="308" y="142" font-family="-apple-system,Segoe UI,Roboto,Helvetica,Arial,sans-serif" font-size="14" font-weight="500" fill="#1a1a1a" text-anchor="start">U1</text>
<text x="395.0" y="251.0" font-family="-apple-system,Segoe UI,Roboto,Helvetica,Arial,sans-serif" font-size="15" font-weight="500" fill="#1a1a1a" text-anchor="middle">LM3S6965</text>
<text x="395.0" y="270.0" font-family="-apple-system,Segoe UI,Roboto,Helvetica,Arial,sans-serif" font-size="12" font-weight="400" fill="#555" text-anchor="middle">Cortex-M3 node</text>
<line x1="490" y1="195" x2="508" y2="195" stroke="#1a1a1a" stroke-width="2" stroke-linecap="round"/>
<text x="482" y="199" font-family="-apple-system,Segoe UI,Roboto,Helvetica,Arial,sans-serif" font-size="12" font-weight="500" fill="#1a1a1a" text-anchor="end">PB2</text>
<line x1="490" y1="235" x2="508" y2="235" stroke="#1a1a1a" stroke-width="2" stroke-linecap="round"/>
<text x="482" y="239" font-family="-apple-system,Segoe UI,Roboto,Helvetica,Arial,sans-serif" font-size="12" font-weight="500" fill="#1a1a1a" text-anchor="end">PB3</text>
<line x1="490" y1="300" x2="508" y2="300" stroke="#1a1a1a" stroke-width="2" stroke-linecap="round"/>
<text x="482" y="304" font-family="-apple-system,Segoe UI,Roboto,Helvetica,Arial,sans-serif" font-size="12" font-weight="500" fill="#1a1a1a" text-anchor="end">PA1</text>
<line x1="490" y1="335" x2="508" y2="335" stroke="#1a1a1a" stroke-width="2" stroke-linecap="round"/>
<text x="482" y="339" font-family="-apple-system,Segoe UI,Roboto,Helvetica,Arial,sans-serif" font-size="12" font-weight="500" fill="#1a1a1a" text-anchor="end">PA0</text>
<line x1="395.0" y1="150" x2="395.0" y2="124" stroke="#1a1a1a" stroke-width="2" stroke-linecap="round"/>
<text x="395.0" y="165" font-family="-apple-system,Segoe UI,Roboto,Helvetica,Arial,sans-serif" font-size="12" font-weight="500" fill="#1a1a1a" text-anchor="middle">VDD</text>
<line x1="395.0" y1="124" x2="395.0" y2="106" stroke="#1a1a1a" stroke-width="2" stroke-linecap="round"/>
<line x1="383.0" y1="106" x2="407.0" y2="106" stroke="#1a1a1a" stroke-width="2" stroke-linecap="round"/>
<text x="395.0" y="99" font-family="-apple-system,Segoe UI,Roboto,Helvetica,Arial,sans-serif" font-size="12" font-weight="500" fill="#1a1a1a" text-anchor="middle">+3V3</text>
<line x1="395.0" y1="360" x2="395.0" y2="382" stroke="#1a1a1a" stroke-width="2" stroke-linecap="round"/>
<text x="395.0" y="352" font-family="-apple-system,Segoe UI,Roboto,Helvetica,Arial,sans-serif" font-size="12" font-weight="500" fill="#1a1a1a" text-anchor="middle">GND</text>
<line x1="395.0" y1="382" x2="395.0" y2="398" stroke="#1a1a1a" stroke-width="2" stroke-linecap="round"/>
<line x1="383.0" y1="398" x2="407.0" y2="398" stroke="#1a1a1a" stroke-width="2" stroke-linecap="round"/>
<line x1="388.0" y1="403" x2="402.0" y2="403" stroke="#1a1a1a" stroke-width="2" stroke-linecap="round"/>
<line x1="392.0" y1="408" x2="398.0" y2="408" stroke="#1a1a1a" stroke-width="2" stroke-linecap="round"/>
<line x1="300" y1="300" x2="270" y2="300" stroke="#1a1a1a" stroke-width="2" stroke-linecap="round"/>
<text x="308" y="304" font-family="-apple-system,Segoe UI,Roboto,Helvetica,Arial,sans-serif" font-size="12" font-weight="500" fill="#1a1a1a" text-anchor="start">RST</text>
<circle cx="270" cy="300" r="4" fill="#1a1a1a"/>
<line x1="270" y1="180" x2="270" y2="198" stroke="#1a1a1a" stroke-width="2" stroke-linecap="round"/>
<line x1="270" y1="242" x2="270" y2="260" stroke="#1a1a1a" stroke-width="2" stroke-linecap="round"/>
<rect x="261" y="198" width="18" height="44" rx="1" fill="none" stroke="#1a1a1a" stroke-width="2"/>
<text x="285" y="217" font-family="-apple-system,Segoe UI,Roboto,Helvetica,Arial,sans-serif" font-size="12" font-weight="500" fill="#1a1a1a" text-anchor="start">R3</text>
<text x="285" y="233" font-family="-apple-system,Segoe UI,Roboto,Helvetica,Arial,sans-serif" font-size="12" font-weight="400" fill="#1a1a1a" text-anchor="start">10k</text>
<line x1="270" y1="300" x2="270" y2="260" stroke="#1a1a1a" stroke-width="2" stroke-linecap="round"/>
<line x1="270" y1="180" x2="270" y2="170" stroke="#1a1a1a" stroke-width="2" stroke-linecap="round"/>
<line x1="270" y1="170" x2="270" y2="152" stroke="#1a1a1a" stroke-width="2" stroke-linecap="round"/>
<line x1="258" y1="152" x2="282" y2="152" stroke="#1a1a1a" stroke-width="2" stroke-linecap="round"/>
<text x="270" y="145" font-family="-apple-system,Segoe UI,Roboto,Helvetica,Arial,sans-serif" font-size="12" font-weight="500" fill="#1a1a1a" text-anchor="middle">+3V3</text>
<line x1="270" y1="350" x2="270" y2="370" stroke="#1a1a1a" stroke-width="2" stroke-linecap="round"/>
<line x1="270" y1="380" x2="270" y2="400" stroke="#1a1a1a" stroke-width="2" stroke-linecap="round"/>
<line x1="256" y1="370" x2="284" y2="370" stroke="#1a1a1a" stroke-width="2" stroke-linecap="round"/>
<line x1="256" y1="380" x2="284" y2="380" stroke="#1a1a1a" stroke-width="2" stroke-linecap="round"/>
<text x="288" y="373" font-family="-apple-system,Segoe UI,Roboto,Helvetica,Arial,sans-serif" font-size="12" font-weight="500" fill="#1a1a1a" text-anchor="start">C5</text>
<text x="288" y="388" font-family="-apple-system,Segoe UI,Roboto,Helvetica,Arial,sans-serif" font-size="12" font-weight="400" fill="#1a1a1a" text-anchor="start">100n</text>
<line x1="270" y1="300" x2="270" y2="350" stroke="#1a1a1a" stroke-width="2" stroke-linecap="round"/>
<line x1="270" y1="400" x2="270" y2="416" stroke="#1a1a1a" stroke-width="2" stroke-linecap="round"/>
<line x1="258" y1="416" x2="282" y2="416" stroke="#1a1a1a" stroke-width="2" stroke-linecap="round"/>
<line x1="263" y1="421" x2="277" y2="421" stroke="#1a1a1a" stroke-width="2" stroke-linecap="round"/>
<line x1="267" y1="426" x2="273" y2="426" stroke="#1a1a1a" stroke-width="2" stroke-linecap="round"/>
<line x1="270" y1="300" x2="210" y2="300" stroke="#1a1a1a" stroke-width="2" stroke-linecap="round"/>
<circle cx="210" cy="330" r="4" fill="none" stroke="#1a1a1a" stroke-width="2"/>
<circle cx="210" cy="358" r="4" fill="none" stroke="#1a1a1a" stroke-width="2"/>
<line x1="210" y1="300" x2="210" y2="326" stroke="#1a1a1a" stroke-width="2" stroke-linecap="round"/>
<line x1="198" y1="334" x2="220" y2="324" stroke="#1a1a1a" stroke-width="2" stroke-linecap="round"/>
<line x1="210" y1="362" x2="210" y2="374" stroke="#1a1a1a" stroke-width="2" stroke-linecap="round"/>
<line x1="210" y1="374" x2="210" y2="390" stroke="#1a1a1a" stroke-width="2" stroke-linecap="round"/>
<line x1="198" y1="390" x2="222" y2="390" stroke="#1a1a1a" stroke-width="2" stroke-linecap="round"/>
<line x1="203" y1="395" x2="217" y2="395" stroke="#1a1a1a" stroke-width="2" stroke-linecap="round"/>
<line x1="207" y1="400" x2="213" y2="400" stroke="#1a1a1a" stroke-width="2" stroke-linecap="round"/>
<text x="198" y="344" font-family="-apple-system,Segoe UI,Roboto,Helvetica,Arial,sans-serif" font-size="12" font-weight="500" fill="#1a1a1a" text-anchor="end">SW1</text>
<text x="198" y="360" font-family="-apple-system,Segoe UI,Roboto,Helvetica,Arial,sans-serif" font-size="12" font-weight="400" fill="#1a1a1a" text-anchor="end">RESET</text>
<rect x="790" y="150" width="180" height="210" rx="3" fill="#fafafa" stroke="#1a1a1a" stroke-width="2.4"/>
<text x="798" y="142" font-family="-apple-system,Segoe UI,Roboto,Helvetica,Arial,sans-serif" font-size="14" font-weight="500" fill="#1a1a1a" text-anchor="start">U2</text>
<text x="880.0" y="251.0" font-family="-apple-system,Segoe UI,Roboto,Helvetica,Arial,sans-serif" font-size="15" font-weight="500" fill="#1a1a1a" text-anchor="middle">ADXL345</text>
<text x="880.0" y="270.0" font-family="-apple-system,Segoe UI,Roboto,Helvetica,Arial,sans-serif" font-size="12" font-weight="400" fill="#555" text-anchor="middle">3-axis accel</text>
<line x1="790" y1="195" x2="772" y2="195" stroke="#1a1a1a" stroke-width="2" stroke-linecap="round"/>
<text x="798" y="199" font-family="-apple-system,Segoe UI,Roboto,Helvetica,Arial,sans-serif" font-size="12" font-weight="500" fill="#1a1a1a" text-anchor="start">SCL</text>
<line x1="790" y1="235" x2="772" y2="235" stroke="#1a1a1a" stroke-width="2" stroke-linecap="round"/>
<text x="798" y="239" font-family="-apple-system,Segoe UI,Roboto,Helvetica,Arial,sans-serif" font-size="12" font-weight="500" fill="#1a1a1a" text-anchor="start">SDA</text>
<line x1="970" y1="195" x2="988" y2="195" stroke="#1a1a1a" stroke-width="2" stroke-linecap="round"/>
<text x="962" y="199" font-family="-apple-system,Segoe UI,Roboto,Helvetica,Arial,sans-serif" font-size="12" font-weight="500" fill="#1a1a1a" text-anchor="end">CS</text>
<line x1="970" y1="270" x2="988" y2="270" stroke="#1a1a1a" stroke-width="2" stroke-linecap="round"/>
<text x="962" y="274" font-family="-apple-system,Segoe UI,Roboto,Helvetica,Arial,sans-serif" font-size="12" font-weight="500" fill="#1a1a1a" text-anchor="end">INT1</text>
<line x1="970" y1="310" x2="988" y2="310" stroke="#1a1a1a" stroke-width="2" stroke-linecap="round"/>
<text x="962" y="314" font-family="-apple-system,Segoe UI,Roboto,Helvetica,Arial,sans-serif" font-size="12" font-weight="500" fill="#1a1a1a" text-anchor="end">INT2</text>
<line x1="988" y1="195" x2="1018" y2="195" stroke="#1a1a1a" stroke-width="2" stroke-linecap="round"/>
<line x1="1018" y1="195" x2="1018" y2="169" stroke="#1a1a1a" stroke-width="2" stroke-linecap="round"/>
<line x1="1018" y1="169" x2="1018" y2="151" stroke="#1a1a1a" stroke-width="2" stroke-linecap="round"/>
<line x1="1006" y1="151" x2="1030" y2="151" stroke="#1a1a1a" stroke-width="2" stroke-linecap="round"/>
<text x="1018" y="144" font-family="-apple-system,Segoe UI,Roboto,Helvetica,Arial,sans-serif" font-size="12" font-weight="500" fill="#1a1a1a" text-anchor="middle">+3V3</text>
<text x="1028" y="199" font-family="-apple-system,Segoe UI,Roboto,Helvetica,Arial,sans-serif" font-size="11" font-weight="400" fill="#777" text-anchor="start">I2C mode</text>
<line x1="988" y1="270" x2="1010" y2="270" stroke="#1a1a1a" stroke-width="2" stroke-linecap="round"/>
<circle cx="1010" cy="270" r="4" fill="none" stroke="#777" stroke-width="2"/>
<text x="1018" y="274" font-family="-apple-system,Segoe UI,Roboto,Helvetica,Arial,sans-serif" font-size="11" font-weight="400" fill="#777" text-anchor="start">NC</text>
<line x1="988" y1="310" x2="1010" y2="310" stroke="#1a1a1a" stroke-width="2" stroke-linecap="round"/>
<circle cx="1010" cy="310" r="4" fill="none" stroke="#777" stroke-width="2"/>
<text x="1018" y="314" font-family="-apple-system,Segoe UI,Roboto,Helvetica,Arial,sans-serif" font-size="11" font-weight="400" fill="#777" text-anchor="start">NC</text>
<line x1="850.0" y1="150" x2="850.0" y2="124" stroke="#1a1a1a" stroke-width="2" stroke-linecap="round"/>
<text x="850.0" y="165" font-family="-apple-system,Segoe UI,Roboto,Helvetica,Arial,sans-serif" font-size="12" font-weight="500" fill="#1a1a1a" text-anchor="middle">VS</text>
<line x1="850.0" y1="124" x2="850.0" y2="106" stroke="#1a1a1a" stroke-width="2" stroke-linecap="round"/>
<line x1="838.0" y1="106" x2="862.0" y2="106" stroke="#1a1a1a" stroke-width="2" stroke-linecap="round"/>
<text x="850.0" y="99" font-family="-apple-system,Segoe UI,Roboto,Helvetica,Arial,sans-serif" font-size="12" font-weight="500" fill="#1a1a1a" text-anchor="middle">+3V3</text>
<line x1="910.0" y1="150" x2="910.0" y2="124" stroke="#1a1a1a" stroke-width="2" stroke-linecap="round"/>
<text x="910.0" y="165" font-family="-apple-system,Segoe UI,Roboto,Helvetica,Arial,sans-serif" font-size="12" font-weight="500" fill="#1a1a1a" text-anchor="middle">VDDIO</text>
<line x1="910.0" y1="124" x2="910.0" y2="106" stroke="#1a1a1a" stroke-width="2" stroke-linecap="round"/>
<line x1="898.0" y1="106" x2="922.0" y2="106" stroke="#1a1a1a" stroke-width="2" stroke-linecap="round"/>
<text x="910.0" y="99" font-family="-apple-system,Segoe UI,Roboto,Helvetica,Arial,sans-serif" font-size="12" font-weight="500" fill="#1a1a1a" text-anchor="middle">+3V3</text>
<line x1="850.0" y1="360" x2="850.0" y2="382" stroke="#1a1a1a" stroke-width="2" stroke-linecap="round"/>
<text x="850.0" y="352" font-family="-apple-system,Segoe UI,Roboto,Helvetica,Arial,sans-serif" font-size="12" font-weight="500" fill="#1a1a1a" text-anchor="middle">GND</text>
<line x1="850.0" y1="382" x2="850.0" y2="398" stroke="#1a1a1a" stroke-width="2" stroke-linecap="round"/>
<line x1="838.0" y1="398" x2="862.0" y2="398" stroke="#1a1a1a" stroke-width="2" stroke-linecap="round"/>
<line x1="843.0" y1="403" x2="857.0" y2="403" stroke="#1a1a1a" stroke-width="2" stroke-linecap="round"/>
<line x1="847.0" y1="408" x2="853.0" y2="408" stroke="#1a1a1a" stroke-width="2" stroke-linecap="round"/>
<line x1="910.0" y1="360" x2="910.0" y2="382" stroke="#1a1a1a" stroke-width="2" stroke-linecap="round"/>
<text x="910.0" y="352" font-family="-apple-system,Segoe UI,Roboto,Helvetica,Arial,sans-serif" font-size="12" font-weight="500" fill="#1a1a1a" text-anchor="middle">SDO</text>
<line x1="910.0" y1="382" x2="910.0" y2="398" stroke="#1a1a1a" stroke-width="2" stroke-linecap="round"/>
<line x1="898.0" y1="398" x2="922.0" y2="398" stroke="#1a1a1a" stroke-width="2" stroke-linecap="round"/>
<line x1="903.0" y1="403" x2="917.0" y2="403" stroke="#1a1a1a" stroke-width="2" stroke-linecap="round"/>
<line x1="907.0" y1="408" x2="913.0" y2="408" stroke="#1a1a1a" stroke-width="2" stroke-linecap="round"/>
<text x="924.0" y="394" font-family="-apple-system,Segoe UI,Roboto,Helvetica,Arial,sans-serif" font-size="11" font-weight="400" fill="#777" text-anchor="start">→0x53</text>
<line x1="508" y1="195" x2="772" y2="195" stroke="#1a1a1a" stroke-width="2" stroke-linecap="round"/>
<text x="640.0" y="187" font-family="-apple-system,Segoe UI,Roboto,Helvetica,Arial,sans-serif" font-size="12" font-weight="500" fill="#0b6" text-anchor="middle">SCL</text>
<line x1="508" y1="235" x2="772" y2="235" stroke="#1a1a1a" stroke-width="2" stroke-linecap="round"/>
<text x="640.0" y="257" font-family="-apple-system,Segoe UI,Roboto,Helvetica,Arial,sans-serif" font-size="12" font-weight="500" fill="#0b6" text-anchor="middle">SDA</text>
<circle cx="658" cy="195" r="4" fill="#1a1a1a"/>
<line x1="658" y1="85" x2="658" y2="103" stroke="#1a1a1a" stroke-width="2" stroke-linecap="round"/>
<line x1="658" y1="147" x2="658" y2="165" stroke="#1a1a1a" stroke-width="2" stroke-linecap="round"/>
<rect x="649" y="103" width="18" height="44" rx="1" fill="none" stroke="#1a1a1a" stroke-width="2"/>
<text x="673" y="122" font-family="-apple-system,Segoe UI,Roboto,Helvetica,Arial,sans-serif" font-size="12" font-weight="500" fill="#1a1a1a" text-anchor="start">R1</text>
<text x="673" y="138" font-family="-apple-system,Segoe UI,Roboto,Helvetica,Arial,sans-serif" font-size="12" font-weight="400" fill="#1a1a1a" text-anchor="start">4k7</text>
<line x1="658" y1="195" x2="658" y2="165" stroke="#1a1a1a" stroke-width="2" stroke-linecap="round"/>
<line x1="658" y1="85" x2="658" y2="75" stroke="#1a1a1a" stroke-width="2" stroke-linecap="round"/>
<line x1="658" y1="75" x2="658" y2="57" stroke="#1a1a1a" stroke-width="2" stroke-linecap="round"/>
<line x1="646" y1="57" x2="670" y2="57" stroke="#1a1a1a" stroke-width="2" stroke-linecap="round"/>
<text x="658" y="50" font-family="-apple-system,Segoe UI,Roboto,Helvetica,Arial,sans-serif" font-size="12" font-weight="500" fill="#1a1a1a" text-anchor="middle">+3V3</text>
<circle cx="708" cy="235" r="4" fill="#1a1a1a"/>
<line x1="708" y1="85" x2="708" y2="103" stroke="#1a1a1a" stroke-width="2" stroke-linecap="round"/>
<line x1="708" y1="147" x2="708" y2="165" stroke="#1a1a1a" stroke-width="2" stroke-linecap="round"/>
<rect x="699" y="103" width="18" height="44" rx="1" fill="none" stroke="#1a1a1a" stroke-width="2"/>
<text x="723" y="122" font-family="-apple-system,Segoe UI,Roboto,Helvetica,Arial,sans-serif" font-size="12" font-weight="500" fill="#1a1a1a" text-anchor="start">R2</text>
<text x="723" y="138" font-family="-apple-system,Segoe UI,Roboto,Helvetica,Arial,sans-serif" font-size="12" font-weight="400" fill="#1a1a1a" text-anchor="start">4k7</text>
<line x1="708" y1="235" x2="708" y2="165" stroke="#1a1a1a" stroke-width="2" stroke-linecap="round"/>
<line x1="708" y1="85" x2="708" y2="75" stroke="#1a1a1a" stroke-width="2" stroke-linecap="round"/>
<line x1="708" y1="75" x2="708" y2="57" stroke="#1a1a1a" stroke-width="2" stroke-linecap="round"/>
<line x1="696" y1="57" x2="720" y2="57" stroke="#1a1a1a" stroke-width="2" stroke-linecap="round"/>
<text x="708" y="50" font-family="-apple-system,Segoe UI,Roboto,Helvetica,Arial,sans-serif" font-size="12" font-weight="500" fill="#1a1a1a" text-anchor="middle">+3V3</text>
<line x1="465.0" y1="65" x2="465.0" y2="85" stroke="#1a1a1a" stroke-width="2" stroke-linecap="round"/>
<line x1="465.0" y1="95" x2="465.0" y2="115" stroke="#1a1a1a" stroke-width="2" stroke-linecap="round"/>
<line x1="451.0" y1="85" x2="479.0" y2="85" stroke="#1a1a1a" stroke-width="2" stroke-linecap="round"/>
<line x1="451.0" y1="95" x2="479.0" y2="95" stroke="#1a1a1a" stroke-width="2" stroke-linecap="round"/>
<text x="483.0" y="88" font-family="-apple-system,Segoe UI,Roboto,Helvetica,Arial,sans-serif" font-size="12" font-weight="500" fill="#1a1a1a" text-anchor="start">C1</text>
<text x="483.0" y="103" font-family="-apple-system,Segoe UI,Roboto,Helvetica,Arial,sans-serif" font-size="12" font-weight="400" fill="#1a1a1a" text-anchor="start">100n</text>
<line x1="465.0" y1="65" x2="465.0" y2="55" stroke="#1a1a1a" stroke-width="2" stroke-linecap="round"/>
<line x1="465.0" y1="55" x2="465.0" y2="37" stroke="#1a1a1a" stroke-width="2" stroke-linecap="round"/>
<line x1="453.0" y1="37" x2="477.0" y2="37" stroke="#1a1a1a" stroke-width="2" stroke-linecap="round"/>
<text x="465.0" y="30" font-family="-apple-system,Segoe UI,Roboto,Helvetica,Arial,sans-serif" font-size="12" font-weight="500" fill="#1a1a1a" text-anchor="middle">+3V3</text>
<line x1="465.0" y1="115" x2="465.0" y2="123" stroke="#1a1a1a" stroke-width="2" stroke-linecap="round"/>
<line x1="465.0" y1="123" x2="465.0" y2="139" stroke="#1a1a1a" stroke-width="2" stroke-linecap="round"/>
<line x1="453.0" y1="139" x2="477.0" y2="139" stroke="#1a1a1a" stroke-width="2" stroke-linecap="round"/>
<line x1="458.0" y1="144" x2="472.0" y2="144" stroke="#1a1a1a" stroke-width="2" stroke-linecap="round"/>
<line x1="462.0" y1="149" x2="468.0" y2="149" stroke="#1a1a1a" stroke-width="2" stroke-linecap="round"/>
<rect x="560" y="470" width="180" height="120" rx="3" fill="#fafafa" stroke="#1a1a1a" stroke-width="2.4"/>
<text x="568" y="462" font-family="-apple-system,Segoe UI,Roboto,Helvetica,Arial,sans-serif" font-size="14" font-weight="500" fill="#1a1a1a" text-anchor="start">U3</text>
<text x="650.0" y="526.0" font-family="-apple-system,Segoe UI,Roboto,Helvetica,Arial,sans-serif" font-size="15" font-weight="500" fill="#1a1a1a" text-anchor="middle">USB-UART</text>
<text x="650.0" y="545.0" font-family="-apple-system,Segoe UI,Roboto,Helvetica,Arial,sans-serif" font-size="12" font-weight="400" fill="#555" text-anchor="middle">FT232 / CP2102</text>
<line x1="560" y1="510" x2="542" y2="510" stroke="#1a1a1a" stroke-width="2" stroke-linecap="round"/>
<text x="568" y="514" font-family="-apple-system,Segoe UI,Roboto,Helvetica,Arial,sans-serif" font-size="12" font-weight="500" fill="#1a1a1a" text-anchor="start">RXD</text>
<line x1="560" y1="550" x2="542" y2="550" stroke="#1a1a1a" stroke-width="2" stroke-linecap="round"/>
<text x="568" y="554" font-family="-apple-system,Segoe UI,Roboto,Helvetica,Arial,sans-serif" font-size="12" font-weight="500" fill="#1a1a1a" text-anchor="start">TXD</text>
<line x1="650.0" y1="590" x2="650.0" y2="608" stroke="#1a1a1a" stroke-width="2" stroke-linecap="round"/>
<line x1="650.0" y1="608" x2="650.0" y2="624" stroke="#1a1a1a" stroke-width="2" stroke-linecap="round"/>
<line x1="638.0" y1="624" x2="662.0" y2="624" stroke="#1a1a1a" stroke-width="2" stroke-linecap="round"/>
<line x1="643.0" y1="629" x2="657.0" y2="629" stroke="#1a1a1a" stroke-width="2" stroke-linecap="round"/>
<line x1="647.0" y1="634" x2="653.0" y2="634" stroke="#1a1a1a" stroke-width="2" stroke-linecap="round"/>
<line x1="740" y1="530.0" x2="764" y2="530.0" stroke="#1a1a1a" stroke-width="2" stroke-linecap="round"/>
<polyline points="508,300 533,300 533,510 542,510" fill="none" stroke="#1a1a1a" stroke-width="2" stroke-linejoin="round" stroke-linecap="round"/>
<text x="533" y="474" font-family="-apple-system,Segoe UI,Roboto,Helvetica,Arial,sans-serif" font-size="12" font-weight="500" fill="#0b6" text-anchor="middle">U0TX</text>
<polyline points="508,335 553,335 553,550 542,550" fill="none" stroke="#1a1a1a" stroke-width="2" stroke-linejoin="round" stroke-linecap="round"/>
<text x="553" y="562" font-family="-apple-system,Segoe UI,Roboto,Helvetica,Arial,sans-serif" font-size="12" font-weight="500" fill="#0b6" text-anchor="middle">U0RX</text>
<rect x="820" y="475.0" width="200" height="110" rx="8" fill="#eef4fb" stroke="#1a1a1a" stroke-width="2.2"/>
<text x="920.0" y="509.0" font-family="-apple-system,Segoe UI,Roboto,Helvetica,Arial,sans-serif" font-size="15" font-weight="500" fill="#0c447c" text-anchor="middle">Linux gateway</text>
<text x="920.0" y="533.0" font-family="ui-monospace,Menlo,Consolas,monospace" font-size="13" font-weight="400" fill="#185fa5" text-anchor="middle">/dev/ttyUSB0</text>
<text x="920.0" y="555.0" font-family="-apple-system,Segoe UI,Roboto,Helvetica,Arial,sans-serif" font-size="12" font-weight="400" fill="#555" text-anchor="middle">115200 8N1</text>
<line x1="764" y1="530.0" x2="820" y2="530.0" stroke="#1a1a1a" stroke-width="2" stroke-linecap="round"/>
<text x="792.0" y="522.0" font-family="-apple-system,Segoe UI,Roboto,Helvetica,Arial,sans-serif" font-size="11" font-weight="400" fill="#777" text-anchor="middle">USB</text>
<rect x="40" y="690" width="1120" height="135" rx="8" fill="#faf7ef" stroke="#d8d2c2" stroke-width="1.5"/>
<text x="56" y="716" font-family="-apple-system,Segoe UI,Roboto,Helvetica,Arial,sans-serif" font-size="13" font-weight="500" fill="#1a1a1a" text-anchor="start">Notes</text>
<text x="56" y="740" font-family="-apple-system,Segoe UI,Roboto,Helvetica,Arial,sans-serif" font-size="11.5" font-weight="400" fill="#444" text-anchor="start">• Bus: I2C0 single-master @ 100 kHz — PB2=SCL, PB3=SDA, both pulled to +3V3 (open-drain). ADXL345 CS→+3V3 selects I2C; SDO→GND sets 7-bit address 0x53.</text>
<text x="56" y="760" font-family="-apple-system,Segoe UI,Roboto,Helvetica,Arial,sans-serif" font-size="11.5" font-weight="400" fill="#444" text-anchor="start">• Link: UART0 @ 115200 8N1 — PA1=TX→bridge RXD, PA0=RX→bridge TXD. Off-board USB-serial bridge presents /dev/ttyUSB0 to the gateway host.</text>
<text x="56" y="780" font-family="-apple-system,Segoe UI,Roboto,Helvetica,Arial,sans-serif" font-size="11.5" font-weight="400" fill="#444" text-anchor="start">• Clock: runs from internal oscillator (PLL bypassed, ~12 MHz) per firmware — no external crystal required. Power: single +3V3 rail; 100 nF decoupling at each supply pin (C1, +ADXL VS/VDDIO).</text>
<text x="56" y="800" font-family="-apple-system,Segoe UI,Roboto,Helvetica,Arial,sans-serif" font-size="11.5" font-weight="400" fill="#444" text-anchor="start">• Emulation: under QEMU lm3s6965evb the UART link is a TCP socket (127.0.0.1:5555) and I2C is not emulated — the sim backend is injected in its place (see docs/02_architecture_SWE2/architecture.md §2).</text>
</svg>